<?xml version="1.0" encoding="UTF-8"?>
<svg id="Layer_2" data-name="Layer 2" xmlns="http://www.w3.org/2000/svg" viewBox="0 0 28.82 19.45">
  <defs>
    <style>
      .cls-1 {
        fill: #020206;
      }
    </style>
  </defs>
  <g id="Layer_1-2" data-name="Layer 1">
    <path class="cls-1" d="M27.62,11.21c-1.89-1.74-6.53-1.87-6.53-1.87,0,0,.54-1.61.83-1.84l.55.17s0-.03.01-.05c.22-1.03-.4-2.19-1.43-2.45-.43-.11-.83-.16-1.14-.13-.88.09-1.49,1.08-2.24,2.03-3.02-3.92-7.29-6.02-7.29-6.02C5.85-1.29,3.73.67,0,3.28c.16,0,6.44.06,11.36,8.91.07.13-.09.36-.2.61-.34.75-.91,1.16-1.32,1.46-.86.61-1.82,1.28-2.91,1.98,0,0,.38.85.72,1.47,0,0,.97-1.1,1.65-1.44,0,0-.89.74-1.41,1.83l1.12.93s.66-1.34,1.41-1.87c-.14.21-.29.47-.43.76-.25.51-.38.99-.46,1.38.14.05.32.11.54.13.33.04.61,0,.79-.04.03-.14.06-.29.11-.44.16-.52.41-.93.63-1.23.26-.54.76-1.38,1.66-2.1.45-.36,1.28-.92,2.86-1.26,4.79-1.04,9.18,1.46,9.49,1.64.78.46,1.87,1.2,2.98,2.35,0,0,.93-5.41-.97-7.15ZM21.36,6.2c.16,0,.28.13.28.28s-.13.28-.28.28-.28-.13-.28-.28.13-.28.28-.28Z"/>
  </g>
</svg>