<?xml version="1.0" encoding="UTF-8"?>
<svg id="Layer_2" data-name="Layer 2" xmlns="http://www.w3.org/2000/svg" viewBox="0 0 35.04 20.92">
  <defs>
    <style>
      .cls-1 {
        fill: #020206;
      }
    </style>
  </defs>
  <g id="Layer_1-2" data-name="Layer 1">
    <path class="cls-1" d="M20.33,12.1l-.67,1.77,2.31,5.27s0,0-.01,0c-.69.63-1.4,1.05-2.09,1.33-.13.06-.27.11-.41.15-1,.32-1.96.35-2.82.22-.17-.03-.33-.06-.49-.09-1.89-.42-3.21-1.51-3.21-1.51l.55-1.2,1.86-4.03-.72-2.26s-7.84,2.86-14.63-2.75c0,0,5.05-4.48,8.35-5.43,0,0,1.23-.39,3.45,1.12,0,0,1.69.81,2.77.36,0,0-.42-3.68,2.27-3.9l.55-1.16.5,1.16s2.07.12,2.36,3.88c0,0,1.65.55,4.9-1.22,0,0,2.15-.74,4.51,1.01,2.36,1.75,5.36,4.33,5.36,4.33,0,0-7.78,4.76-14.71,2.94Z"/>
  </g>
</svg>