<?xml version="1.0" encoding="UTF-8"?>
<svg id="Layer_2" data-name="Layer 2" xmlns="http://www.w3.org/2000/svg" viewBox="0 0 48.18 28.76">
  <defs>
    <style>
      .cls-1 {
        fill: #020206;
      }
    </style>
  </defs>
  <g id="Layer_1-2" data-name="Layer 1">
    <path class="cls-1" d="M27.95,16.64l-.93,2.43,3.18,7.25s0,0-.01,0c-.95.86-1.92,1.45-2.87,1.83-.18.08-.37.15-.56.21-1.37.45-2.69.48-3.88.3-.23-.04-.45-.08-.67-.13-2.6-.58-4.41-2.08-4.41-2.08l.76-1.65,2.55-5.54-.99-3.1s-10.79,3.93-20.12-3.77c0,0,6.94-6.16,11.49-7.47,0,0,1.7-.53,4.75,1.54,0,0,2.32,1.12,3.8.49,0,0-.58-5.06,3.12-5.36l.76-1.6.69,1.6s2.85.17,3.25,5.34c0,0,2.26.76,6.74-1.68,0,0,2.95-1.02,6.21,1.39,3.25,2.41,7.37,5.95,7.37,5.95,0,0-10.7,6.55-20.23,4.04Z"/>
  </g>
</svg>