<?xml version="1.0" encoding="UTF-8"?>
<svg id="Layer_2" data-name="Layer 2" xmlns="http://www.w3.org/2000/svg" viewBox="0 0 272.68 179.93">
  <defs>
    <style>
      .cls-1 {
        fill: #faf8f3;
      }
    </style>
  </defs>
  <g id="Layer_3" data-name="Layer 3">
    <g>
      <path class="cls-1" d="M181.6,65.28h48.56c-3.36-4.95-5.1-8.56-17.95-20.16-1.8-1.62-10.47-10.75-25.96-11.53-2.37-.12-17.69-.78-28.57,10.9-6.63,7.11-8.21,15.13-8.68,18.51v33.52c3.31-.93,9.99-3.48,20.49-.65.36.1.72.21,1.08.33,9.53,2.99,15.56,10.17,19.07,19.33l27.56,64.4h-24.99c-.57-1.4-1.14-2.81-1.7-4.22-3.05-7.5-6.09-15.01-9.13-22.52-1.56-3.86-3.13-7.72-4.69-11.59-1.83-4.52-3.39-9.21-5.46-13.62-1.35-2.88-3.21-5.63-5.89-7.35-2.68-1.71-6.11-1.83-9.07-.66-5.93,2.36-5.68,10.81-5.64,16.09v43.87h-42.45v-102.52c.04-2.58,0-17.56-11.87-28.76-2.18-2.06-10.68-9.82-23.82-10.07-15.83-.29-24.86,9.64-26.31,11.3-6.88,7.81-7.61,16.34-8.01,19.79l-1.56,110.26H0v-107.88c.05-4.74.3-36.22,23.63-55.94C41.27,1.2,62.01.2,69.53.02c28.81-.7,48.56,17.65,54.02,22.23,2.14-3.76,9.12-9.11,15.69-12.83C152.89,1.69,170.59-.61,186.2.16c15.87.77,31.19,6.41,43.12,16.74,5.01,4.35,9.33,9.42,12.86,14.98,1.34,2.12,2.57,4.32,3.7,6.56.4.79,1.55,4.62,2.31,4.94,2.97,1.24,6.83,3.26,10.73,6.52,6.47,5.42,9.76,11.55,11.36,15.18h-35.31l37.71,114.85h-32.46l-28.38-82.97-30.24-31.68Z"/>
      <circle class="cls-1" cx="193.37" cy="49.5" r="5.58"/>
    </g>
  </g>
</svg>