<?xml version="1.0" encoding="UTF-8"?>
<svg id="Layer_2" data-name="Layer 2" xmlns="http://www.w3.org/2000/svg" viewBox="0 0 873.37 78.08">
  <defs>
    <style>
      .cls-1 {
        fill: #faf8f3;
      }
    </style>
  </defs>
  <g id="Layer_3" data-name="Layer 3">
    <g>
      <path class="cls-1" d="M89.07,78.08h-17.78V24.79c0-1.04-.24-2.01-.71-2.91-.48-.9-1.12-1.69-1.93-2.37-.81-.68-1.75-1.21-2.83-1.59-1.08-.38-2.24-.57-3.48-.57s-2.4.19-3.48.57c-1.08.38-2.02.91-2.83,1.59-.81.68-1.44,1.47-1.9,2.37-.46.9-.68,1.87-.68,2.91v53.29h-17.84V24.79c0-1.04-.23-2.01-.68-2.91-.46-.9-1.09-1.69-1.9-2.37-.81-.68-1.75-1.21-2.83-1.59-1.08-.38-2.24-.57-3.48-.57s-2.4.19-3.48.57c-1.08.38-2.02.91-2.83,1.59-.81.68-1.44,1.47-1.9,2.37-.46.9-.68,1.87-.68,2.91v53.29H0V24.79c0-3.09.69-5.99,2.08-8.72,1.39-2.72,3.29-5.1,5.72-7.13,2.42-2.03,5.26-3.62,8.51-4.79,3.25-1.16,6.72-1.74,10.41-1.74,3.31,0,6.5.49,9.57,1.48,3.07.99,5.82,2.42,8.27,4.29,2.44-1.87,5.19-3.3,8.24-4.29,3.05-.99,6.22-1.48,9.54-1.48,3.69,0,7.16.58,10.41,1.74,3.25,1.16,6.09,2.76,8.52,4.79,2.42,2.03,4.33,4.41,5.72,7.13,1.39,2.72,2.08,5.63,2.08,8.72v53.29Z"/>
      <path class="cls-1" d="M174.5,78.08h-17.31v-15.33h-34.62v15.33h-17.25v-45.94c0-4.24.9-8.22,2.71-11.94,1.81-3.72,4.27-6.97,7.39-9.75,3.12-2.78,6.77-4.97,10.98-6.57,4.2-1.6,8.69-2.4,13.48-2.4s9.28.8,13.48,2.4c4.2,1.6,7.87,3.79,11.01,6.57,3.14,2.78,5.61,6.03,7.42,9.75,1.81,3.72,2.71,7.7,2.71,11.94v45.94ZM157.19,47.47v-15.33c0-2.1-.45-4.09-1.36-5.96-.91-1.87-2.14-3.5-3.71-4.89-1.57-1.39-3.41-2.48-5.52-3.29-2.11-.8-4.35-1.2-6.72-1.2s-4.61.4-6.72,1.2c-2.11.8-3.95,1.9-5.52,3.29-1.57,1.39-2.8,3.02-3.71,4.89-.9,1.87-1.36,3.86-1.36,5.96v15.33h34.62Z"/>
      <path class="cls-1" d="M208.59,78.08h-17.84V3.45h35.68c3.27,0,6.42.36,9.45,1.07,3.02.71,5.85,1.72,8.48,3.02,2.63,1.3,5.04,2.86,7.21,4.68,2.18,1.82,4.04,3.84,5.59,6.06,1.55,2.22,2.76,4.6,3.6,7.13.85,2.53,1.27,5.17,1.27,7.91,0,2.57-.38,5.07-1.15,7.49-.77,2.43-1.86,4.74-3.29,6.92-1.43,2.19-3.18,4.2-5.25,6.04-2.07,1.84-4.39,3.43-6.96,4.79l9.88,19.51h-18.96l-7.77-15.04-19.95.1v14.93ZM208.59,18.39v29.87h17.84c2.44,0,4.74-.39,6.9-1.17,2.15-.78,4.04-1.85,5.66-3.2,1.62-1.35,2.89-2.94,3.82-4.76.93-1.82,1.4-3.75,1.4-5.8s-.47-3.98-1.4-5.8c-.93-1.82-2.21-3.41-3.82-4.76s-3.5-2.42-5.66-3.2c-2.15-.78-4.45-1.17-6.9-1.17h-17.84Z"/>
      <path class="cls-1" d="M334.83,78.08h-61.1V3.45h61.1v14.93h-43.26v14.93h29.28v14.93h-29.28v14.88h43.26v14.93Z"/>
      <path class="cls-1" d="M418.61,78.08h-19.08l-34.37-49.12v49.12h-17.84V3.45h19.08l34.37,49.18V3.45h17.84v74.62Z"/>
      <path class="cls-1" d="M501.81,54.92c0,3.19-.59,6.18-1.78,8.97-1.19,2.79-2.8,5.24-4.84,7.33-2.04,2.1-4.42,3.75-7.15,4.97-2.72,1.22-5.64,1.83-8.75,1.83h-37.55V.97h37.55c3.11,0,6.02.61,8.75,1.83,2.72,1.22,5.11,2.87,7.15,4.97,2.04,2.1,3.66,4.54,4.84,7.33,1.19,2.79,1.78,5.79,1.78,8.97,0,1.43-.19,2.9-.58,4.41-.38,1.5-.93,2.96-1.62,4.35-.7,1.4-1.54,2.67-2.51,3.82-.98,1.15-2.06,2.1-3.25,2.85,1.22.68,2.32,1.6,3.3,2.77.98,1.16,1.81,2.44,2.51,3.84.7,1.4,1.23,2.86,1.6,4.38.37,1.52.55,3,.55,4.43ZM456.78,31.81h22.52c1.05,0,2.02-.2,2.93-.59.91-.39,1.7-.94,2.38-1.64.68-.7,1.21-1.52,1.6-2.47.38-.95.58-1.96.58-3.04s-.19-2.08-.58-3.01c-.38-.93-.92-1.75-1.6-2.44-.68-.7-1.47-1.24-2.38-1.64-.91-.39-1.89-.59-2.93-.59h-22.52v15.42ZM456.78,62.6h22.52c1.05,0,2.02-.2,2.93-.59.91-.39,1.7-.94,2.38-1.64.68-.7,1.21-1.51,1.6-2.44.38-.93.58-1.93.58-3.01s-.19-2.08-.58-3.01c-.38-.93-.92-1.75-1.6-2.44-.68-.7-1.47-1.24-2.38-1.64-.91-.39-1.89-.59-2.93-.59h-22.52v15.37Z"/>
      <path class="cls-1" d="M527.57,78.02h-15.03V.97h30.06c2.76,0,5.41.37,7.96,1.1,2.55.73,4.93,1.77,7.15,3.12,2.22,1.34,4.24,2.96,6.07,4.84,1.83,1.88,3.4,3.97,4.71,6.26,1.31,2.29,2.32,4.75,3.04,7.36.72,2.62,1.07,5.34,1.07,8.17,0,2.65-.32,5.23-.97,7.74-.65,2.51-1.57,4.89-2.78,7.15-1.2,2.26-2.68,4.34-4.43,6.23-1.75,1.9-3.7,3.55-5.87,4.94l8.33,20.15h-15.97l-6.55-15.53-16.81.11v15.42ZM527.57,16.39v30.84h15.03c2.06,0,4-.4,5.81-1.21,1.81-.81,3.4-1.91,4.77-3.3s2.43-3.04,3.22-4.92c.79-1.88,1.18-3.88,1.18-5.99s-.39-4.11-1.18-5.99c-.79-1.88-1.86-3.52-3.22-4.92s-2.95-2.5-4.77-3.3c-1.82-.81-3.75-1.21-5.81-1.21h-15.03Z"/>
      <path class="cls-1" d="M660.99,38.99c0,3.58-.46,7.02-1.39,10.34-.93,3.31-2.23,6.42-3.9,9.31-1.68,2.89-3.7,5.53-6.07,7.92-2.37,2.39-4.99,4.43-7.86,6.13-2.86,1.7-5.95,3.02-9.27,3.95-3.32.93-6.76,1.39-10.32,1.39s-6.99-.47-10.29-1.39c-3.3-.93-6.39-2.24-9.27-3.95-2.88-1.7-5.51-3.74-7.88-6.13-2.37-2.38-4.41-5.02-6.1-7.92-1.69-2.89-3-6-3.93-9.31-.93-3.31-1.39-6.76-1.39-10.34s.46-7.03,1.39-10.36c.92-3.33,2.23-6.44,3.93-9.31,1.69-2.88,3.73-5.51,6.1-7.89,2.37-2.38,5-4.42,7.88-6.1,2.88-1.68,5.97-2.99,9.27-3.92,3.3-.93,6.73-1.39,10.29-1.39s7,.47,10.32,1.39c3.32.93,6.41,2.24,9.27,3.92,2.86,1.68,5.48,3.72,7.86,6.1,2.37,2.39,4.4,5.02,6.07,7.89,1.68,2.88,2.98,5.98,3.9,9.31.92,3.33,1.39,6.79,1.39,10.36ZM646.07,38.99c0-3.3-.63-6.41-1.89-9.34-1.26-2.93-2.96-5.47-5.11-7.63-2.15-2.16-4.68-3.87-7.59-5.13-2.92-1.26-6.01-1.89-9.3-1.89s-6.42.63-9.32,1.89c-2.9,1.26-5.43,2.97-7.59,5.13-2.17,2.16-3.88,4.7-5.13,7.63-1.26,2.93-1.89,6.04-1.89,9.34s.63,6.39,1.89,9.29,2.97,5.43,5.13,7.6c2.16,2.18,4.69,3.89,7.59,5.16,2.9,1.26,6,1.89,9.32,1.89s6.38-.63,9.3-1.89c2.91-1.26,5.45-2.98,7.59-5.16,2.15-2.17,3.85-4.71,5.11-7.6s1.89-5.99,1.89-9.29Z"/>
      <path class="cls-1" d="M686.75,78.02h-15.03V.97h30.06c2.76,0,5.41.37,7.96,1.1,2.55.73,4.93,1.77,7.15,3.12,2.22,1.34,4.24,2.96,6.07,4.84,1.83,1.88,3.4,3.97,4.71,6.26,1.31,2.29,2.32,4.75,3.04,7.36.72,2.62,1.07,5.34,1.07,8.17,0,4.23-.79,8.21-2.36,11.96-1.57,3.74-3.72,7.01-6.44,9.81-2.72,2.79-5.91,5-9.56,6.61-3.65,1.61-7.53,2.42-11.65,2.42h-15.03v15.42ZM686.75,16.39v30.84h15.03c2.06,0,4-.4,5.81-1.21,1.81-.81,3.4-1.91,4.77-3.3s2.43-3.04,3.22-4.92c.79-1.88,1.18-3.88,1.18-5.99s-.39-4.11-1.18-5.99c-.79-1.88-1.86-3.52-3.22-4.92s-2.95-2.5-4.77-3.3c-1.82-.81-3.75-1.21-5.81-1.21h-15.03Z"/>
      <path class="cls-1" d="M757.54,78.02h-15.03V.97h15.03v30.84h30.01V.97h15.03v77.06h-15.03v-30.79h-30.01v30.79Z"/>
      <path class="cls-1" d="M850.85,78.02h-14.98v-24.13c-3.32-.86-6.36-2.24-9.14-4.14-2.78-1.9-5.16-4.16-7.15-6.8-1.99-2.63-3.53-5.55-4.63-8.76-1.1-3.21-1.65-6.58-1.65-10.13V.97h15.03v23.11c0,2.11.39,4.11,1.18,5.99.79,1.88,1.86,3.52,3.22,4.92s2.96,2.5,4.79,3.3c1.83.81,3.78,1.21,5.84,1.21s4.01-.4,5.84-1.21c1.83-.81,3.43-1.91,4.79-3.3,1.36-1.4,2.44-3.04,3.22-4.92.79-1.88,1.18-3.88,1.18-5.99V.97h14.98v23.11c0,3.55-.55,6.92-1.65,10.13-1.1,3.21-2.64,6.13-4.63,8.76-1.99,2.63-4.36,4.9-7.12,6.8-2.76,1.9-5.8,3.28-9.11,4.14v24.13Z"/>
    </g>
  </g>
</svg>