<?xml version="1.0" encoding="UTF-8"?>
<svg id="Layer_2" data-name="Layer 2" xmlns="http://www.w3.org/2000/svg" viewBox="0 0 173.75 114.65">
  <defs>
    <style>
      .cls-1 {
        fill: #d5f05d;
      }
    </style>
  </defs>
  <g id="Layer_3" data-name="Layer 3">
    <g>
      <path class="cls-1" d="M115.71,41.6h30.94c-2.14-3.15-3.25-5.45-11.44-12.85-1.15-1.03-6.67-6.85-16.54-7.35-1.51-.08-11.27-.5-18.2,6.95-4.22,4.53-5.23,9.64-5.53,11.79v21.36c2.11-.59,6.37-2.22,13.06-.41.23.06.46.13.69.21,6.07,1.91,9.91,6.48,12.15,12.32l17.56,41.04h-18.03c-.36-.89-.73-1.79-1.08-2.69-1.94-4.78-3.88-9.56-5.82-14.35-.99-2.46-1.99-4.92-2.99-7.39-1.52-3.77-2.61-7.81-5.03-11.15-.99-1.37-2.26-2.65-3.89-3.13-2.47-.73-4.54.88-5.23,3.19-.51,1.7-.4,3.57-.42,5.33-.08,6.4.06,12.81.06,19.21v10.97h-27.05V49.32c.03-1.64,0-11.19-7.56-18.33-1.39-1.31-6.81-6.26-15.18-6.42-10.09-.18-15.84,6.14-16.76,7.2-4.38,4.98-4.85,10.41-5.1,12.61l-.99,70.26H0V45.91c.03-3.02.19-23.08,15.06-35.64C26.3.76,39.51.13,44.3.01c18.36-.45,30.94,11.25,34.42,14.16,1.36-2.4,5.81-5.8,10-8.18C97.42,1.08,108.7-.39,118.65.1c10.11.49,19.87,4.08,27.48,10.67,3.19,2.77,5.95,6,8.19,9.54.85,1.35,1.64,2.75,2.36,4.18.25.5.99,2.94,1.47,3.15,1.89.79,4.35,2.08,6.84,4.15,4.12,3.45,6.22,7.36,7.24,9.67h-22.5l24.03,73.18h-20.68l-18.08-52.87-19.27-20.19Z"/>
      <circle class="cls-1" cx="123.22" cy="31.54" r="3.56"/>
    </g>
  </g>
</svg>