<?xml version="1.0" encoding="UTF-8"?>
<svg id="Layer_2" data-name="Layer 2" xmlns="http://www.w3.org/2000/svg" viewBox="0 0 207.05 136.63">
  <defs>
    <style>
      .cls-1 {
        stroke: #fff;
        stroke-miterlimit: 10;
        stroke-width: 3px;
      }

      .cls-1, .cls-2 {
        fill: #fff;
      }
    </style>
  </defs>
  <g id="Layer_3" data-name="Layer 3">
    <g>
      <circle class="cls-1" cx="145.51" cy="37.89" r="4.47"/>
      <path class="cls-2" d="M115.74,94.1c.04,3.29.06,6.38.07,9.22v33.31h-33.66V58.78c.03-1.97,0-13.34-9.01-21.84-1.66-1.57-8.11-7.46-18.1-7.65-12.01-.22-18.87,7.32-19.97,8.58-5.22,5.93-5.78,12.4-6.08,15.03l-1.19,83.72H0V54.71c.04-3.61.23-27.51,17.95-42.49C31.34.9,47.09.15,52.8.02c21.87-.54,36.87,13.4,41.02,16.88,1.62-2.85,6.92-6.92,11.91-9.75C116.1,1.28,129.53-.47,141.39.11c12.05.59,23.68,4.88,32.74,12.72,3.8,3.3,7.08,7.15,9.76,11.37,1.03,1.61,1.96,3.28,2.82,4.99.3.59,1.17,3.5,1.75,3.74,2.25.95,5.19,2.48,8.15,4.96,4.91,4.11,7.41,8.76,8.62,11.52h-26.81l28.63,87.21h-24.65l-21.54-63-22.97-24.06h36.87c-2.54-3.76-3.86-6.5-13.62-15.3-1.37-1.23-7.95-8.17-19.71-8.76-1.8-.09-13.43-.59-21.7,8.28-5.03,5.39-3.99,11.78-4.34,14.34"/>
    </g>
  </g>
</svg>