<svg width="67" height="68" viewBox="0 0 67 68" fill="none" xmlns="http://www.w3.org/2000/svg">
<path d="M17.1762 31.2644V24.7859C19.7615 24.9387 22.6417 24.4889 25.173 25.0146C26.2075 25.2291 27.0718 25.6536 27.4188 26.7321C27.7956 27.9062 27.6104 29.708 26.5424 30.4717C26.1396 30.7603 24.7656 31.2644 24.2967 31.2644H17.1762Z" fill="#D5F05D"/>
<path d="M28.7448 40.5714C28.3254 42.0583 26.5642 42.9885 24.6304 42.9885H17.1762V36.5241C19.627 36.6388 22.3038 36.3701 24.7281 36.5241C27.7837 36.7174 29.4344 38.1335 28.7448 40.5714Z" fill="#D5F05D"/>
<path d="M45.5028 31.4937C43.2989 31.8582 42.3078 33.6305 41.919 35.7127L51.0107 35.8038C50.9249 32.7111 48.3832 31.0171 45.5028 31.4937ZM45.5028 31.4937C43.2989 31.8582 42.3078 33.6305 41.919 35.7127L51.0107 35.8038C50.9249 32.7111 48.3832 31.0171 45.5028 31.4937ZM45.5028 31.4937C43.2989 31.8582 42.3078 33.6305 41.919 35.7127L51.0107 35.8038C50.9249 32.7111 48.3832 31.0171 45.5028 31.4937ZM45.5028 31.4937C43.2989 31.8582 42.3078 33.6305 41.919 35.7127L51.0107 35.8038C50.9249 32.7111 48.3832 31.0171 45.5028 31.4937ZM56.178 0H10.7405C4.9422 0 0.241333 4.79304 0.241333 10.7051V57.0335C0.241333 62.9464 4.9422 67.7395 10.7405 67.7395H56.178C61.9764 67.7395 66.6781 62.9464 66.6781 57.0335V10.7051C66.6781 4.79304 61.9764 0 56.178 0ZM40.7715 21.4939H52.0697V24.3743H40.7715V21.4939ZM32.2546 46.0651C30.4841 48.0989 28.047 48.7477 25.4607 48.9473L11.2901 48.9436V20.3239L25.9853 20.3258C28.2865 20.5727 30.4761 21.2397 31.9802 23.1232C33.991 25.6427 34.0357 30.4239 31.5048 32.61C31.351 32.7421 30.0382 33.5713 30.0909 33.6424C35.1475 35.3819 35.4495 42.3947 32.2546 46.0651ZM56.4828 39.3138H41.8306C41.8458 41.2566 42.6224 43.0872 44.4187 43.9201C46.0828 44.691 48.5494 44.6372 49.9534 43.3205C50.2939 43.0016 50.5942 42.279 50.789 42.1022C51.016 41.8962 53.2798 42.1067 53.7945 42.1076C54.2691 42.1095 54.7669 41.9992 55.2968 42.0111C55.607 42.0174 55.9126 42.0639 56.2182 42.104C54.4407 49.3255 44.9156 50.6075 39.7196 46.3713C35.4156 42.8621 35.5094 33.7654 39.2254 29.8626C42.9343 25.9671 50.554 25.958 54.0564 30.1333C56.22 32.7111 56.6159 36.0161 56.4828 39.3138ZM45.5028 31.4937C43.2989 31.8582 42.3078 33.6305 41.919 35.7127L51.0107 35.8038C50.9249 32.7111 48.3832 31.0171 45.5028 31.4937ZM45.5028 31.4937C43.2989 31.8582 42.3078 33.6305 41.919 35.7127L51.0107 35.8038C50.9249 32.7111 48.3832 31.0171 45.5028 31.4937ZM45.5028 31.4937C43.2989 31.8582 42.3078 33.6305 41.919 35.7127L51.0107 35.8038C50.9249 32.7111 48.3832 31.0171 45.5028 31.4937ZM45.5028 31.4937C43.2989 31.8582 42.3078 33.6305 41.919 35.7127L51.0107 35.8038C50.9249 32.7111 48.3832 31.0171 45.5028 31.4937ZM45.5028 31.4937C43.2989 31.8582 42.3078 33.6305 41.919 35.7127L51.0107 35.8038C50.9249 32.7111 48.3832 31.0171 45.5028 31.4937Z" fill="#D5F05D"/>
</svg>
