<svg width="68" height="68" viewBox="0 0 68 68" fill="none" xmlns="http://www.w3.org/2000/svg">
<path d="M34.9445 40.64C25.6838 40.8996 24.6831 26.9051 33.9739 25.9165C43.9956 24.8506 44.928 40.3593 34.9445 40.64Z" fill="#D5F05D"/>
<path d="M56.8448 0H11.4082C5.60894 0 0.908081 4.79395 0.908081 10.706V57.0344C0.908081 62.9464 5.60894 67.7395 11.4082 67.7395H56.8448C62.644 67.7395 67.3449 62.9464 67.3449 57.0344V10.706C67.3449 4.79395 62.644 0 56.8448 0ZM56.145 40.5403C55.7804 49.9323 52.883 55.4143 42.9567 56.0184C37.8671 56.3273 30.7443 56.3355 25.6582 56.0184C15.7372 55.3988 12.8426 49.9542 12.4699 40.5403C12.3037 36.3414 12.3063 31.3898 12.4699 27.19C12.8283 17.9721 15.5576 12.481 25.3132 11.7703C30.4529 11.3967 37.6043 11.4131 42.7663 11.7019C52.9473 12.2714 55.7902 17.7598 56.1468 27.3932C56.3005 31.5438 56.3068 36.3925 56.145 40.5403ZM43.3588 15.8152C38.2674 15.4462 29.9766 15.4288 24.912 15.8744C18.2199 16.4631 16.7847 20.3595 16.4933 26.574C16.2815 31.1046 16.2797 36.8235 16.504 41.3504C16.8356 48.0415 18.6337 51.4732 25.6475 51.9261C30.6585 52.2496 38.1593 52.266 43.1578 51.9151C50.0562 51.4313 51.7981 47.9304 52.1216 41.3614C52.3468 36.7779 52.3352 30.957 52.1216 26.369C51.8249 20.0169 50.0947 16.3027 43.3588 15.8152ZM36.632 45.0555C21.1245 48.2857 17.833 23.6508 33.5621 22.4398C47.2348 21.3873 50.1072 42.2489 36.632 45.0555ZM45.3688 24.6377C42.6716 24.3124 42.5813 19.8237 45.4233 19.3435C49.217 18.702 49.9016 25.1853 45.3688 24.6377Z" fill="#D5F05D"/>
</svg>
