<svg width="66" height="68" viewBox="0 0 66 68" fill="none" xmlns="http://www.w3.org/2000/svg">
<path d="M55.5698 0H10.4311C4.67086 0 0 4.81147 0 10.7471V57.2529C0 63.1885 4.67086 68 10.4311 68H55.5698C61.33 68 66 63.1885 66 57.2529V10.7481C66 4.81239 61.33 0.000914662 55.5698 0.000914662V0ZM22.2391 52.2895H12.8308V23.2094H22.2391V52.2895ZM21.9701 15.1525C20.7414 18.7803 15.9817 19.5093 13.7524 16.4194C11.5888 13.4227 13.439 9.01556 17.0551 8.68352C20.523 8.36519 23.1216 11.7506 21.9701 15.1525ZM55.1685 52.2895H45.7603L45.762 37.2386C45.6626 34.5374 45.0802 31.8856 41.9755 31.6889C37.4396 31.4008 36.4834 34.188 36.3502 38.2567L36.352 52.2895H26.9437V23.2094H36.352V27.4263L36.4967 27.3952C38.3079 23.5552 42.5783 22.8527 46.3427 23.3128C53.4115 24.1763 54.9723 29.875 55.1712 36.3175L55.1685 52.2895Z" fill="#D5F05D"/>
</svg>
