<?xml version="1.0" encoding="UTF-8"?>
<svg id="Layer_2" data-name="Layer 2" xmlns="http://www.w3.org/2000/svg" viewBox="0 0 130.46 92.91">
  <defs>
    <style>
      .cls-1 {
        fill: #5671b2;
      }
    </style>
  </defs>
  <g id="Layer_1-2" data-name="Layer 1">
    <g>
      <path class="cls-1" d="M104.8,26.4c0,1.76-1.43,3.19-3.2,3.19s-3.19-1.43-3.19-3.19,1.43-3.19,3.19-3.19,3.2,1.43,3.2,3.19Z"/>
      <path class="cls-1" d="M24.94,74.94s-.02.01-.03.02v-.07s.02.03.03.05Z"/>
      <path class="cls-1" d="M42.37,92.77h-.1c-.06-.04-.12-.08-.18-.12.09.04.18.08.28.12Z"/>
      <path class="cls-1" d="M42.37,92.77h.02s-.01,0-.02,0Z"/>
      <path class="cls-1" d="M42.39,92.77h0s0,.07,0,.07h0s0,0,0,0c-.04-.02-.07-.05-.11-.07-.06-.04-.12-.08-.18-.12.06.03.13.06.2.08.03.01.05.02.08.04h.02Z"/>
      <path class="cls-1" d="M42.53,92.8s-.09.03-.14.03c0,0,0,0,0,0-.04-.02-.07-.05-.11-.07-.35-.19-.7-.38-1.05-.58.35.18.71.35,1.08.51.07.04.15.07.22.1Z"/>
      <path class="cls-1" d="M42.31,92.7l-.02.03-.02.03c-.35-.19-.7-.38-1.05-.58.35.18.71.35,1.08.51Z"/>
      <path class="cls-1" d="M109.73,49.78s-6.89-11.35-1.63-15.14h7.63s-4-18.78-18.87-18.45c-5.83.13-10.69,4.01-13.98,8.55-3.96,5.45-4.43,13.29-4.56,19.81-.27,13.48.05,27.02.05,40.51v7.78h-21.22c.07-.28.02-.62.02-.62v-58.35c0-1.23-.79-2.81-1.2-3.94-.93-2.56-2.13-4.01-3.77-6.2-6.96-9.27-18.75-8.25-26.21-6.13-2.23.63-4.2,1.33-6.3,2.31-1.84.86-4.32,2.1-6.23,3.11,0,.02,0,1.44,0,1.48.03.77-.12,4,0,8.69,6.41,1.08,21.74,5.67,32.2,25.16-.22-.25-13.71-15.3-31.83-17.86.52,6.69,1.65,14.7,4.08,22.47,6.64,1.16,16.69,4.53,25.1,14.2-.17-.12-11.06-7.98-22.86-8.03,3.7,8.8,9.41,16.71,18.2,21.28.91.67,1.86,1.27,2.89,1.79.34.2.69.39,1.05.58.04.03.07.05.11.07-.73.15-1.67,0-2.39,0H0S.3,29.63.3,29.59C.3,21.26,2.79,14.87,8.63,9.83,17.78,1.94,30.45-.41,42.05.97c8.06.95,15.83,3.58,23.24,6.86C75.85,2.98,85.59-.55,96.86.07c5.25.28,11.62,1.62,17.08,4.15,3.15,1.46,5.99,3.31,8.15,5.58,4.76,5.03,8.07,11.68,8.29,18.7.07,2.15.08,11.83.08,23.02,0,18.36,0,41.32,0,41.32h-34.32s28.37-11.21,13.59-43.06Z"/>
    </g>
  </g>
</svg>