<?xml version="1.0" encoding="UTF-8"?>
<svg id="Layer_2" data-name="Layer 2" xmlns="http://www.w3.org/2000/svg" viewBox="0 0 138.18 138.18">
  <defs>
    <style>
      .cls-1 {
        fill: #fafaf5;
      }
    </style>
  </defs>
  <g id="Layer_1-2" data-name="Layer 1">
    <path class="cls-1" d="M124.79,0H13.39C5.99,0,0,5.99,0,13.39v111.4c0,7.39,5.99,13.39,13.39,13.39h111.4c7.4,0,13.39-6,13.39-13.39V13.39c0-7.39-5.99-13.39-13.39-13.39ZM20.41,117.85l-.12-66.47h21.83c.06.02.18.12.27.14l.14,66.34h-22.12ZM32.49,42.69c-17.25,1.28-18.21-21.19-2.58-22.32,6.43-.46,12.18,3,13.09,9.67.9,6.6-3.97,12.17-10.51,12.65ZM119.35,117.85h-22.18l-.18-.41v-38.18c-.34-5.04-1.72-10.65-7.34-11.91-7.57-1.69-13.62,3.86-14.18,11.2v39.31h-22.47l-.12-66.47,22.28.02.14.1.23,9.28c3.35-5.74,8.58-9.53,15.24-10.45,17.53-2.4,28.27,10,28.59,26.67v40.85Z"/>
  </g>
</svg>