<?xml version="1.0" encoding="UTF-8"?>
<svg id="Layer_2" data-name="Layer 2" xmlns="http://www.w3.org/2000/svg" viewBox="0 0 248.28 163.84">
  <defs>
    <style>
      .cls-1 {
        fill: #1e1e1c;
      }
    </style>
  </defs>
  <g id="Layer_3" data-name="Layer 3">
    <g>
      <path class="cls-1" d="M165.35,59.44h44.21c-3.05-4.51-4.63-7.79-16.33-18.35-1.64-1.47-9.54-9.79-23.64-10.5-2.16-.11-16.11-.71-26.02,9.92-6.03,6.48-7.47,13.79-7.89,16.85v30.53c3.01-.85,9.09-3.17,18.64-.59.34.09.67.19.99.29,8.68,2.73,14.17,9.27,17.36,17.6l25.1,58.65h-22.75c-.52-1.28-1.04-2.56-1.56-3.84-2.77-6.84-5.53-13.68-8.3-20.51-1.43-3.52-2.85-7.04-4.28-10.55-1.66-4.12-3.08-8.39-4.96-12.41-1.23-2.62-2.93-5.12-5.37-6.68-2.44-1.57-5.56-1.68-8.26-.61-5.4,2.15-5.17,9.84-5.14,14.65v39.95h-38.64v-93.35c.03-2.35,0-15.99-10.81-26.18-1.99-1.88-9.72-8.95-21.69-9.17-14.41-.27-22.64,8.77-23.96,10.28-6.26,7.12-6.93,14.88-7.29,18.02l-1.42,100.4H0v-98.23c.06-4.32.28-32.98,21.52-50.94C37.58,1.1,56.47.19,63.32.02c26.23-.64,44.21,16.08,49.18,20.25,1.94-3.43,8.3-8.3,14.28-11.69C139.22,1.54,155.33-.55,169.54.15c14.45.71,28.4,5.84,39.26,15.25,4.56,3.95,8.5,8.57,11.71,13.63,1.23,1.94,2.35,3.94,3.37,5.98.36.72,1.41,4.2,2.1,4.49,2.71,1.14,6.23,2.97,9.78,5.94,5.88,4.93,8.88,10.51,10.34,13.82h-32.15l34.33,104.58h-29.56l-25.83-75.55-27.54-28.85Z"/>
      <path class="cls-1" d="M181.16,45.07c0,2.81-2.28,5.09-5.09,5.09s-5.08-2.28-5.08-5.09,2.28-5.08,5.08-5.08,5.09,2.28,5.09,5.08Z"/>
    </g>
  </g>
</svg>