<?xml version="1.0" encoding="UTF-8"?>
<svg id="Layer_2" data-name="Layer 2" xmlns="http://www.w3.org/2000/svg" viewBox="0 0 138.18 138.18">
  <defs>
    <style>
      .cls-1 {
        fill: #fafaf5;
      }
    </style>
  </defs>
  <g id="Layer_1-2" data-name="Layer 1">
    <g>
      <path class="cls-1" d="M70.75,86.14c-21.33,1.79-24.07-30.11-3.55-32.42,22.15-2.5,24.74,30.64,3.55,32.42Z"/>
      <path class="cls-1" d="M124.79,0H13.39C5.99,0,0,5.99,0,13.39v111.4c0,7.39,5.99,13.39,13.39,13.39h111.4c7.39,0,13.39-6,13.39-13.39V13.39c0-7.4-5.99-13.39-13.39-13.39ZM118.04,86.66c-.88,21.4-9.68,31.09-31.35,32.02-10.79.46-23.73.44-34.52,0-21.83-.88-30.81-10.39-31.68-32.02-.43-10.53-.43-23.02,0-33.55.89-21.99,9.92-30.91,31.79-31.91,10.46-.48,22.63-.52,33.09-.11,21.23.83,31.02,8.36,32.33,30.05.68,11.18.81,24.28.34,35.52ZM79.72,29.72c-7.34-.2-15.13-.12-22.47.11-15.44.49-26.64,1.56-27.81,19.97-.79,12.39-.79,27.81,0,40.18,1.23,19.4,14.15,19.68,30.02,20.08,9.57.24,20.38.27,29.89-.33,20.52-1.3,19.78-15.99,20.06-32.36.16-8.77.22-18.86-.33-27.57-1.22-19.09-13.62-19.66-29.36-20.08ZM93.31,76.85c-6,21.7-36.47,24.46-46.45,4.33-7.36-14.84,1.97-34.2,18.68-36.09,18.29-2.07,32.77,13.72,27.77,31.76ZM98.44,48.8c-5.03,3.28-11.27-2.7-8.23-7.9.71-1.2,2.45-2.55,3.84-2.79,6.58-1.1,9.76,7.19,4.38,10.69Z"/>
    </g>
  </g>
</svg>