<?xml version="1.0" encoding="UTF-8"?>
<svg id="Layer_1" data-name="Layer 1" xmlns="http://www.w3.org/2000/svg" viewBox="0 0 17.58 12.52">
  <defs>
    <style>
      .cls-1 {
        fill: #050407;
      }
    </style>
  </defs>
  <path class="cls-1" d="M14.13,3.56c0,.24-.19.43-.43.43s-.43-.19-.43-.43.19-.43.43-.43.43.19.43.43Z"/>
  <polygon class="cls-1" points="3.36 10.1 3.36 10.1 3.36 10.09 3.36 10.1"/>
  <path class="cls-1" d="M5.71,12.5h-.01s-.02-.01-.02-.02c.01,0,.02.01.04.02Z"/>
  <polygon class="cls-1" points="5.71 12.5 5.71 12.5 5.71 12.51 5.71 12.5"/>
  <path class="cls-1" d="M5.71,12.5h0s0,0,0,0h0s0,0,0,0c0,0,0,0-.01,0,0,0-.02-.01-.02-.02,0,0,.02,0,.03.01,0,0,0,0,.01,0h0Z"/>
  <path class="cls-1" d="M5.73,12.51s-.01,0-.02,0c0,0,0,0,0,0,0,0,0,0-.01,0-.05-.03-.09-.05-.14-.08.05.02.1.05.15.07,0,0,.02,0,.03.01Z"/>
  <path class="cls-1" d="M5.7,12.49h0s0,0,0,0c-.05-.03-.09-.05-.14-.08.05.02.1.05.15.07Z"/>
  <path class="cls-1" d="M14.79,6.71s-.93-1.53-.22-2.04h1.03s-.54-2.53-2.54-2.49c-.79.02-1.44.54-1.88,1.15-.53.73-.6,1.79-.61,2.67-.04,1.82,0,3.64,0,5.46v1.05h-2.86s0-.08,0-.08v-7.86c0-.17-.11-.38-.16-.53-.13-.34-.29-.54-.51-.83-.94-1.25-2.53-1.11-3.53-.83-.3.09-.57.18-.85.31-.25.12-.58.28-.84.42,0,0,0,.19,0,.2,0,.1-.02.54,0,1.17.86.15,2.93.76,4.34,3.39-.03-.03-1.85-2.06-4.29-2.41.07.9.22,1.98.55,3.03.89.16,2.25.61,3.38,1.91-.02-.02-1.49-1.08-3.08-1.08.5,1.19,1.27,2.25,2.45,2.87.12.09.25.17.39.24.05.03.09.05.14.08,0,0,0,0,.01,0-.1.02-.22,0-.32,0H0S.04,3.99.04,3.99C.04,2.86.38,2,1.16,1.32,2.4.26,4.1-.05,5.67.13c1.09.13,2.13.48,3.13.92C10.22.4,11.54-.07,13.06,0c.71.04,1.57.22,2.3.56.42.2.81.45,1.1.75.64.68,1.09,1.57,1.12,2.52,0,.29.01,1.59.01,3.1,0,2.47,0,5.57,0,5.57h-4.63s3.82-1.51,1.83-5.8Z"/>
</svg>