<?xml version="1.0" encoding="UTF-8"?>
<svg id="Layer_2" data-name="Layer 2" xmlns="http://www.w3.org/2000/svg" viewBox="0 0 138.18 138.18">
  <defs>
    <style>
      .cls-1 {
        fill: #fafaf5;
      }
    </style>
  </defs>
  <g id="Layer_1-2" data-name="Layer 1">
    <g>
      <path class="cls-1" d="M11.32.07l114.71-.07c6.36.62,11.54,5.8,12.16,12.16v114.09c-.81,6.29-5.84,11.28-12.16,11.93H12.16c-6.36-.62-11.54-5.8-12.16-12.16V11.94C.76,5.92,5.37,1.14,11.32.07ZM25.01,39.55v57.49h22.39c7.92-.61,16.14.99,21.78-5.93,6.92-8.49,4.37-21.84-6.91-24.52l3.18-2.15c8.78-7.78,4.69-21.61-6.55-24.14-2.46-.55-4.96-.39-7.42-.76h-26.48ZM105.45,43.41h-22.72v7.73h22.72v-7.73ZM113.63,79.32c-.07-3.91-.32-7.87-1.43-11.64-5.28-17.92-31.11-17.73-36.41.28-3.42,11.64.15,26.7,13.51,29.44,10.12,2.07,20.08-1.35,23.61-11.63l-10.75-2.09c-1.36,2.39-1.78,4.53-4.68,5.52-6.42,2.18-11.89-3.65-11.36-9.88h27.5Z"/>
      <path class="cls-1" d="M36.59,87.27v-15.23c4.68.19,9.55-.25,14.21,0s9.74,1.25,10.11,6.93c.45,6.79-4.22,8.04-9.89,8.31-4.74.23-9.68-.19-14.44,0Z"/>
      <path class="cls-1" d="M36.59,62.27v-12.95h16.48c.36,0,2.34.66,2.77.87,4.35,2.12,3.92,9.2-.45,11.22-.56.26-2.48.87-3,.87h-15.79Z"/>
      <path class="cls-1" d="M102.5,72.5h-16.36c.09-4.76,2.63-9.34,7.83-9.55,5.56-.22,8.62,4.4,8.53,9.55Z"/>
    </g>
  </g>
</svg>